<svg width="336" height="336" viewBox="0 0 336 336" fill="none" xmlns="http://www.w3.org/2000/svg">
<path d="M70.7107 70.7107C109.763 31.6583 173.08 31.6583 212.132 70.7107C249.999 108.578 251.148 169.257 215.58 208.509L227.688 220.617L228.395 219.91C229.567 218.739 231.467 218.739 232.638 219.91L268.701 255.973C269.872 257.144 269.872 259.044 268.701 260.215L260.215 268.701C259.044 269.872 257.144 269.872 255.973 268.701L219.91 232.638C218.739 231.467 218.739 229.567 219.91 228.395L220.617 227.688L208.509 215.58C169.257 251.148 108.578 249.999 70.7107 212.132C31.6582 173.08 31.6582 109.763 70.7107 70.7107ZM80.2566 79.5495C46.0857 113.72 46.0857 169.122 80.2566 203.293C114.427 237.464 169.829 237.464 204 203.293C238.171 169.122 238.171 113.72 204 79.5495C169.829 45.3786 114.427 45.3786 80.2566 79.5495Z" fill="#00132C"/>
<g clip-path="url(#clip0_24_44)">
<path d="M141.584 215.584C100.228 215.584 66.5843 181.939 66.5843 140.584C66.5843 99.2297 100.228 65.5843 141.584 65.5843C182.941 65.5843 216.584 99.2297 216.584 140.584C216.584 181.939 182.941 215.584 141.584 215.584Z" fill="#FFE14D"/>
<path d="M216.584 140.584C216.584 99.2297 182.941 65.5843 141.584 65.5843V215.584C182.941 215.584 216.584 181.939 216.584 140.584Z" fill="#FFCC33"/>
<path d="M141.584 75.3668C105.622 75.3668 76.3668 104.624 76.3668 140.584C76.3668 176.544 105.622 205.802 141.584 205.802C177.546 205.802 206.802 176.544 206.802 140.584C206.802 104.624 177.546 75.3668 141.584 75.3668ZM141.584 196.019C111.017 196.019 86.1496 171.151 86.1496 140.584C86.1496 110.017 111.017 85.1496 141.584 85.1496C172.152 85.1496 197.019 110.017 197.019 140.584C197.019 171.152 172.152 196.019 141.584 196.019Z" fill="#FF9F19"/>
<path d="M197.019 140.584C197.019 171.152 172.151 196.019 141.584 196.019V205.801C177.546 205.801 206.802 176.544 206.802 140.584C206.802 104.624 177.546 75.3668 141.584 75.3668V85.1493C172.152 85.1496 197.019 110.017 197.019 140.584Z" fill="#F28618"/>
<path d="M159.519 153.628C159.519 161.813 153.975 168.726 146.475 170.878V173.193C146.475 175.9 144.291 178.085 141.584 178.085C138.877 178.085 136.693 175.9 136.693 173.193V170.878C129.193 168.726 123.649 161.813 123.649 153.628C123.649 150.921 125.833 148.736 128.54 148.736C131.247 148.736 133.432 150.921 133.432 153.628C133.432 158.128 137.084 161.78 141.584 161.78C146.084 161.78 149.736 158.128 149.736 153.628C149.736 153.4 149.704 153.269 149.671 153.171C149.279 150.628 145.627 148.345 141.584 146.128C140.834 145.736 140.051 145.313 139.301 144.921C132.323 141.237 123.649 136.639 123.649 127.541C123.649 119.356 129.193 112.443 136.693 110.291V107.976C136.693 105.269 138.877 103.084 141.584 103.084C144.291 103.084 146.476 105.269 146.476 107.976V110.291C153.976 112.443 159.519 119.356 159.519 127.541C159.519 130.247 157.335 132.432 154.628 132.432C151.921 132.432 149.736 130.248 149.736 127.541C149.736 123.041 146.084 119.389 141.584 119.389C137.084 119.389 133.432 123.041 133.432 127.541C133.432 130.247 137.28 132.693 141.584 135.041C142.334 135.432 143.117 135.856 143.867 136.247C150.846 139.932 159.519 144.53 159.519 153.628Z" fill="#FF9F19"/>
<path d="M159.519 153.628C159.519 161.813 153.975 168.726 146.475 170.878V173.193C146.475 175.9 144.291 178.085 141.584 178.085V161.78C146.084 161.78 149.736 158.128 149.736 153.628C149.736 153.4 149.704 153.27 149.671 153.172C149.279 150.628 145.627 148.346 141.584 146.128V135.041C142.334 135.433 143.117 135.857 143.867 136.248C150.846 139.932 159.519 144.53 159.519 153.628Z" fill="#F28618"/>
<path d="M149.736 127.541C149.736 130.243 151.928 132.432 154.628 132.432C157.328 132.432 159.519 130.243 159.519 127.541C159.519 119.349 153.991 112.438 146.476 110.302V107.976C146.476 105.274 144.285 103.084 141.584 103.084V119.389C146.081 119.389 149.736 123.046 149.736 127.541Z" fill="#F28618"/>
</g>
<circle opacity="0.46" cx="142.084" cy="141.084" r="87.5" fill="#9CF8FB"/>
<defs>
<clipPath id="clip0_24_44">
<rect width="150" height="150" fill="white" transform="translate(66.5843 65.5843)"/>
</clipPath>
</defs>
</svg>
